PathFileType	3	(X/Y/Z)	D:\Vicon Database\Healthy Subjects\S0040\Jan. 30, 2020\Force Plate Walk 4.trc
DataRate	CameraRate	NumFrames	NumMarkers	Units	OrigDataRate	OrigDataStartFrame	OrigNumFrames
100.0	100.0	5	53	mm	100.0	569	329	
Frame#	Time	right_foot_cluster2			right_foot_cluster3			sternum_cluster1			sternum_cluster2			sternum_cluster3			left_asis			right_asis			left_psis			right_psis			sacrum_cluster1			sacrum_cluster2			sacrum_cluster3			left_lat_femoral_epicondyle			left_anterior_thigh15			left_anterior_thigh25			left_anterior_thigh50			left_lateral_thigh25			left_lateral_thigh50			left_thigh_cluster1			left_thigh_cluster2			left_thigh_cluster3			left_fibular_head			left_tibial_tuberosity			left_anterior_shank30			left_lateral_malleolus			left_shank_cluster1			left_shank_cluster2			left_shank_cluster3			left_heel			left_metatarsal2			left_foot_cluster1			left_foot_cluster2			left_foot_cluster3			right_lat_femoral_epicondyle			right_anterior_thigh15			right_anterior_thigh25			right_anterior_thigh50			right_lateral_thigh25			right_lateral_thigh50			right_thigh_cluster1			right_thigh_cluster2			right_thigh_cluster3			right_fibular_head			right_tibial_tuberosity			right_lateral_distal_shank			right_anterior_shank30			right_lateral_malleolus			right_shank_cluster1			right_shank_cluster2			right_shank_cluster3			right_heel			right_metatarsal2			right_foot_cluster1			
		X1	Y1	Z1	X2	Y2	Z2	X3	Y3	Z3	X4	Y4	Z4	X5	Y5	Z5	X6	Y6	Z6	X7	Y7	Z7	X8	Y8	Z8	X9	Y9	Z9	X10	Y10	Z10	X11	Y11	Z11	X12	Y12	Z12	X13	Y13	Z13	X14	Y14	Z14	X15	Y15	Z15	X16	Y16	Z16	X17	Y17	Z17	X18	Y18	Z18	X19	Y19	Z19	X20	Y20	Z20	X21	Y21	Z21	X22	Y22	Z22	X23	Y23	Z23	X24	Y24	Z24	X25	Y25	Z25	X26	Y26	Z26	X27	Y27	Z27	X28	Y28	Z28	X29	Y29	Z29	X30	Y30	Z30	X31	Y31	Z31	X32	Y32	Z32	X33	Y33	Z33	X34	Y34	Z34	X35	Y35	Z35	X36	Y36	Z36	X37	Y37	Z37	X38	Y38	Z38	X39	Y39	Z39	X40	Y40	Z40	X41	Y41	Z41	X42	Y42	Z42	X43	Y43	Z43	X44	Y44	Z44	X45	Y45	Z45	X46	Y46	Z46	X47	Y47	Z47	X48	Y48	Z48	X49	Y49	Z49	X50	Y50	Z50	X51	Y51	Z51	X52	Y52	Z52	X53	Y53	Z53	
569	5.68	-571.88434	161.35573	-169.23398	-569.78125	161.11346	-206.57811	-231.5453	1435.2345	-87.722496	-244.04845	1407.7605	-80.307907	-239.58603	1410.9435	-117.74419	-231.85786	1058.0818	30.74519	-222.31285	1070.5682	-217.19836	-64.725143	1071.5465	-17.799019	-56.760906	1071.8741	-134.73221	-47.961712	1127.2878	-82.019852	-42.844463	1102.0004	-93.484253	-43.947899	1095.9851	-54.621471	-70.265167	544.36438	34.960785	-183.78595	601.76965	-10.397543	-223.13332	680.50934	9.810008	-253.25822	817.94421	36.215088	-106.11947	693.38354	62.374668	-146.71411	833.75885	94.432266	-131.68265	788.92871	97.441055	-124.06888	761.52545	93.690536	-161.09108	763.05316	98.63398	-54.558258	462.83655	38.36515	-106.28976	443.09506	-15.579945	-29.228155	204.41646	-39.219677	48.229748	103.87023	-18.897436	-96.063179	391.64478	-45.861389	-93.801476	363.89987	-38.315136	-80.250999	368.24698	-74.362434	126.84029	72.78447	-54.883522	-92.248032	58.244091	-51.536865	-35.559956	111.8634	-47.397381	-58.046974	94.185699	-36.659058	-62.912792	98.62767	-74.340019	-343.16281	544.61737	-230.47226	-390.85666	651.66644	-179.10686	-373.3157	730.94012	-174.6684	-322.06088	849.60931	-181.00919	-284.0611	691.69562	-262.57434	-227.90515	829.81787	-283.83762	-241.70692	779.02039	-290.20358	-261.92606	758.21655	-287.8407	-226.84398	743.24609	-281.70746	-354.21451	479.90359	-233.24731	-413.31046	487.07791	-191.70567	-427.53412	219.38855	-223.49365	-468.41251	247.51923	-179.95515	-465.78717	114.35994	-208.86008	-424.79489	424.16788	-137.8555	-428.53754	396.18616	-130.59007	-449.77957	401.8092	-160.8403	-410.20215	55.85434	-166.38809	-611.72375	141.4586	-178.64587	-544.31366	165.9082	-177.36588
570	5.69	-600.63324	168.54263	-167.83514	-599.04803	168.52574	-205.18141	-245.32227	1432.3109	-87.942223	-257.83765	1404.8213	-80.525581	-253.42857	1407.9972	-117.95218	-245.5056	1055.2621	30.571266	-236.64279	1067.5875	-217.71716	-78.143532	1069.4253	-18.495249	-70.756332	1069.1544	-135.42938	-61.789429	1124.546	-82.838943	-56.992252	1098.7742	-94.352097	-57.775417	1093.2257	-55.355865	-77.697281	543.83087	35.053596	-192.92615	599.57367	-9.9215431	-233.00479	677.62866	10.128517	-264.95663	814.78302	36.571934	-115.92677	692.18237	62.374828	-158.78731	832.08282	94.720932	-142.59698	787.26349	97.100349	-134.81459	760.00909	93.543213	-171.58672	760.96234	98.339668	-60.596859	462.49545	38.431995	-112.10905	441.77832	-15.362673	-31.707037	204.30293	-39.09642	47.164417	104.86562	-18.899197	-101.21895	390.54681	-45.618706	-98.483536	362.71249	-38.124191	-85.238121	367.26166	-74.155518	126.26537	74.185005	-54.910213	-92.76226	57.87463	-51.475887	-36.491184	111.95518	-47.312504	-58.736992	94.027702	-36.581139	-63.87365	98.524048	-74.339111	-355.90994	540.89612	-229.44299	-400.93741	646.71375	-177.38889	-384.75342	725.84344	-173.93005	-335.18842	844.97101	-181.1595	-295.11121	686.73645	-262.42075	-240.16946	825.70117	-283.83191	-253.44473	774.41443	-290.68054	-272.86533	753.30402	-287.86252	-238.05583	738.74768	-281.5206	-370.07309	477.39932	-232.22443	-428.18848	486.51947	-189.21782	-454.36478	220.23615	-223.48375	-493.49286	249.97258	-179.1671	-497.58194	116.66657	-209.15181	-440.8447	423.87375	-135.99335	-446.00476	396.23141	-128.68544	-467.54303	403.00177	-158.47733	-443.9295	55.072342	-167.79074	-641.68964	150.93964	-176.72098	-572.97681	171.83098	-176.34615
571	5.7	-626.79028	174.67767	-165.74901	-625.79651	175.04845	-203.15593	-259.1611	1429.3013	-88.174026	-271.6973	1401.828	-80.738106	-267.41031	1405.0602	-118.15527	-259.18869	1052.3674	30.332308	-251.03954	1064.5667	-218.19565	-92.257187	1066.2244	-19.237516	-84.814484	1066.1416	-136.2565	-75.51123	1121.705	-83.734169	-70.685356	1096.1222	-95.114143	-71.076103	1090.5126	-55.932838	-85.67556	542.97021	35.072491	-202.75844	597.34912	-9.4623785	-243.26105	674.20337	10.545522	-276.92831	811.62799	36.898617	-126.16475	690.68665	62.324032	-170.25352	830.0058	94.230286	-154.10327	785.66248	97.462929	-145.44089	758.15497	93.537949	-182.39633	758.63831	97.954643	-67.204407	461.98508	38.465939	-118.55417	440.31598	-15.184175	-34.396244	204.13309	-38.917824	46.171806	105.87777	-18.899664	-107.10143	389.26379	-45.326675	-103.90339	361.64148	-37.739502	-90.808884	366.24561	-73.956398	125.54642	75.540321	-55.003681	-93.280716	57.533993	-51.333019	-37.500072	112.03102	-47.088089	-59.569874	93.804459	-36.383438	-64.794083	98.467712	-74.112694	-369.39838	537.38074	-228.88367	-412.47757	642.78497	-175.73579	-396.92792	721.55249	-173.59526	-348.63586	840.80695	-181.70047	-307.31433	682.31879	-261.66916	-252.84773	821.66852	-284.25671	-265.02164	769.64398	-290.43542	-285.15457	748.53021	-288.04044	-250.34026	734.32068	-281.03012	-385.87216	475.09927	-231.39931	-442.83951	485.84583	-186.95862	-479.21048	221.02515	-223.38422	-516.73608	252.11504	-178.18158	-526.58258	119.12103	-209.18962	-456.49228	423.37091	-134.37624	-462.84863	396.06253	-126.97734	-484.52411	403.78058	-156.48566	-476.77936	54.674679	-170.25473	-668.5957	158.76712	-174.33102	-599.18604	177.01089	-174.72118
572	5.71	-650.36865	179.39084	-163.33031	-649.79584	180.19423	-200.70847	-273.09125	1426.3163	-88.446091	-285.61969	1398.8329	-81.011612	-281.33203	1402.0132	-118.44041	-273.04987	1049.6218	30.21916	-265.52628	1061.547	-218.70865	-105.73013	1063.6597	-19.948254	-98.897972	1063.3721	-136.98743	-89.368347	1118.7635	-84.336731	-84.610481	1093.2838	-96.070251	-84.80368	1087.9695	-56.431042	-94.512215	542.19342	35.173759	-210.51859	593.92737	-10.284537	-254.23456	671.453	10.881499	-289.22467	808.56299	37.224281	-136.9498	689.16089	62.349094	-182.73096	827.98846	94.369057	-165.45833	783.51959	96.395195	-157.27449	756.34692	93.95636	-193.96391	756.58179	97.999908	-74.592682	461.4046	38.528336	-125.72092	438.67648	-15.112695	-37.449448	204.10478	-38.709503	44.931499	106.95623	-18.822931	-112.69379	387.54935	-45.755112	-109.2972	360.03671	-37.341656	-97.013885	365.07227	-73.739296	124.71721	77.533974	-54.963722	-93.873962	57.175503	-51.172047	-38.636463	112.18254	-46.748714	-60.525799	93.647713	-36.115788	-65.815765	98.446793	-73.823967	-383.13626	534.18347	-228.35139	-425.82767	640.08167	-174.08989	-410.46893	718.53278	-173.41341	-362.62823	837.61536	-182.56712	-319.76923	678.47827	-260.27362	-266.55643	817.94763	-284.97015	-278.33786	765.51868	-290.39993	-299.01892	744.49817	-288.24997	-263.32449	730.39026	-280.23013	-401.48099	472.81171	-230.79332	-457.42413	484.92249	-185.22173	-502.75476	221.90739	-223.21033	-538.20367	253.55055	-176.97516	-553.41296	121.71708	-209.38362	-471.88403	422.57196	-133.02701	-479.08307	395.53781	-125.66908	-500.86499	404.06787	-154.81367	-504.77289	54.421127	-171.60666	-692.78253	164.95683	-171.55377	-622.85632	180.91808	-172.63873
573	5.72	-671.30573	182.37344	-161.07661	-671.06769	183.45389	-198.41914	-287.03577	1423.3114	-88.834366	-299.63739	1395.9014	-81.330833	-295.37137	1399.0385	-118.78581	-286.99387	1046.9211	30.119246	-280.0914	1058.6184	-219.16873	-119.40352	1061.3372	-20.244207	-113.24525	1060.334	-137.6861	-103.42296	1115.8738	-85.235825	-98.661301	1090.4772	-96.610359	-99.354614	1084.4481	-57.488785	-104.04659	540.97583	35.170006	-220.47777	591.04065	-10.326672	-265.71475	668.8465	11.187442	-301.73349	805.52448	37.56675	-148.11357	687.50482	62.329227	-194.71375	825.72375	93.977921	-177.92213	781.86652	97.482834	-168.70164	754.43945	93.456673	-206.31012	754.60114	99.308151	-82.987747	460.74335	38.695	-133.74026	436.86859	-14.969136	-40.935658	203.9785	-38.418118	43.53434	108.38614	-18.613415	-120.47475	386.0575	-44.9175	-115.24576	358.05472	-37.545322	-103.78732	363.68823	-73.532547	123.76108	79.609085	-54.753704	-94.550262	56.808212	-50.925148	-39.964989	112.34061	-46.239483	-61.649109	93.545479	-35.687782	-67.107803	98.520912	-73.337944	-399.13489	532.10468	-229.29977	-440.66449	638.45691	-172.25372	-425.50085	716.77087	-173.29369	-377.41153	835.51294	-183.47618	-333.43463	675.73358	-258.85184	-280.76154	814.89417	-285.18982	-292.05423	762.38153	-289.79575	-312.9075	741.38556	-287.52103	-277.05988	727.41693	-279.32773	-416.67957	470.46454	-230.36763	-472.20947	483.70615	-184.2435	-523.23535	221.84085	-222.29523	-557.7832	254.21555	-175.6593	-576.06458	122.59187	-208.1378	-487.20016	421.60126	-132.09995	-495.10748	394.77225	-124.59444	-516.86395	403.82043	-153.64691	-528.76715	53.907074	-171.53722	-714.08173	168.94026	-168.96967	-643.89673	183.38519	-170.64864
